<svg width="120" height="20" viewBox="0 0 120 20" fill="none" xmlns="http://www.w3.org/2000/svg">
<path id="Vector" d="M3.66484 1.19905L0.0374756 19.5413H2.53331L3.41465 14.6991H6.84239L7.75773 19.5413H10.3364L6.7587 1.19905H3.66397H3.66484ZM4.52963 7.83063C4.71269 6.75679 4.92889 5.25459 5.09539 4.10969H5.14508C5.31159 5.23091 5.52778 6.70941 5.72741 7.85432L6.49281 12.0283H3.76422L4.52963 7.83063ZM20.7687 9.30914C20.3694 11.4558 19.9867 13.6973 19.7042 15.8924H19.6546C19.3887 13.6736 19.006 11.4795 18.6233 9.30914L17.1753 1.19905H14.4798L18.19 19.5413H21.0023L24.8955 1.19905H22.2498L20.7695 9.30914H20.7687ZM28.672 19.5413V1.19905H26.2093V19.5413H28.672ZM30.602 18.7537C31.2009 19.2787 32.4824 19.7791 33.7464 19.7791C36.7252 19.7791 38.4051 17.441 38.4051 14.2451C38.4051 11.8358 37.4898 10.1432 35.4438 8.83144C33.8798 7.80596 33.2478 7.20982 33.2478 5.89811C33.2478 4.87263 33.8301 3.87083 35.1282 3.87083C36.176 3.87083 36.958 4.32386 37.4078 4.65845L37.9239 1.77249C37.325 1.34315 36.3931 0.9375 35.1787 0.9375C32.417 0.9375 30.7703 3.25101 30.7703 6.25639C30.7703 8.64194 31.9681 10.3593 33.8981 11.5516C35.3121 12.4339 35.9276 13.2216 35.9276 14.5333C35.9276 15.8934 35.2119 16.8231 33.8476 16.8231C32.8163 16.8231 31.751 16.3701 31.0859 15.7976L30.6029 18.7546L30.602 18.7537ZM42.9809 1.19905L39.3536 19.5413H41.8494L42.7307 14.6991H46.1576L47.073 19.5413H49.6516L46.0748 1.19905H42.9801H42.9809ZM43.8466 7.83063C44.0297 6.75679 44.2459 5.25459 44.4124 4.10969H44.4621C44.6286 5.23091 44.8447 6.70941 45.0444 7.85432L45.8098 12.0283H43.0812L43.8466 7.83063ZM57.3736 16.5843V11.4795H61.5502V8.59357H57.3736V4.15706H61.7995V1.19905H54.9109V19.5413H62.0654V16.5843H57.3736ZM72.5142 1.20003H69.8022L68.7203 4.77787C68.4039 5.82704 68.1877 6.66204 67.8887 7.80695H67.8556C67.5565 6.78146 67.3064 5.85172 66.9742 4.80157L65.8261 1.20003H63.081L66.2751 10.2162L62.9641 19.5423H65.6596L66.7075 16.0128C67.0902 14.7484 67.3892 13.7466 67.6559 12.6501H67.7056C68.0221 13.7466 68.3211 14.7248 68.7535 15.9891L69.9016 19.5432H72.6633L69.2364 10.1935L72.5142 1.20102V1.20003ZM76.5905 19.5423V12.6728C76.8399 12.7439 77.1397 12.7685 77.4893 12.7685C79.4028 12.7685 82.331 11.6473 82.331 6.61467C82.331 4.92099 81.8646 3.44248 81.0992 2.51174C80.2841 1.50995 79.0698 1.05692 77.4553 1.05692C76.0413 1.05692 74.9429 1.22372 74.1444 1.43889V19.5423H76.5905ZM76.5905 3.94288C76.8067 3.87182 77.1563 3.79977 77.6558 3.79977C79.0201 3.79977 79.8849 4.82525 79.8849 6.78146C79.8849 8.76136 78.987 10.001 77.4562 10.001C77.09 10.001 76.8242 9.97734 76.5905 9.90627V3.94288ZM86.5895 16.5843V11.4795H90.7661V8.59357H86.5895V4.15706H91.0154V1.19905H84.1268V19.5413H91.2813V16.5843H86.5895ZM93.1783 19.5413H95.6244V12.0994H96.4561C97.6207 12.0994 98.1368 12.8386 98.4689 15.2005C98.7688 17.4183 99.0844 19.0172 99.2675 19.5413H101.796C101.547 18.8494 101.214 16.6553 100.848 14.4849C100.548 12.6244 100.049 11.3838 99.1507 10.8834V10.8123C100.348 10.1451 101.347 8.49883 101.347 6.25639C101.347 1.34315 98.0854 1.05692 96.4717 1.05692C95.2243 1.05692 94.0256 1.22372 93.1774 1.43889V19.5423L93.1783 19.5413ZM95.6244 3.89452C95.824 3.79878 96.2067 3.75141 96.7559 3.75141C97.6547 3.75141 98.8856 4.20444 98.8856 6.56631C98.8856 8.30736 98.0374 9.47595 96.64 9.47595H95.6253V3.89452H95.6244ZM102.363 1.19905V4.25181H105.507V19.5413H107.97V4.25181H111.131V1.19905H102.363ZM112.013 18.7537C112.612 19.2787 113.894 19.7791 115.158 19.7791C118.136 19.7791 119.816 17.441 119.816 14.2451C119.816 11.8358 118.901 10.1432 116.855 8.83144C115.291 7.80596 114.659 7.20982 114.659 5.89811C114.659 4.87263 115.241 3.87083 116.54 3.87083C117.587 3.87083 118.369 4.32386 118.819 4.65845L119.335 1.77249C118.736 1.34315 117.804 0.9375 116.59 0.9375C113.828 0.9375 112.182 3.25101 112.182 6.25639C112.182 8.64194 113.379 10.3593 115.309 11.5516C116.723 12.4339 117.34 13.2216 117.34 14.5333C117.34 15.8934 116.624 16.8231 115.26 16.8231C114.229 16.8231 113.163 16.3701 112.498 15.7976L112.015 18.7546L112.013 18.7537Z" fill="white"/>
</svg>
