<svg width="25" height="24" viewBox="0 0 25 24" fill="none" xmlns="http://www.w3.org/2000/svg">
<g id="Phone">
<path id="Vector" d="M21.3472 14.8557L16.9306 12.8766L16.9184 12.871C16.6892 12.7729 16.439 12.7336 16.1907 12.7565C15.9424 12.7794 15.7037 12.8639 15.4963 13.0022C15.4718 13.0184 15.4484 13.0359 15.4259 13.0547L13.1441 15.0001C11.6984 14.2979 10.2059 12.8166 9.50376 11.3897L11.4519 9.07318C11.4706 9.04974 11.4884 9.0263 11.5053 9.00099C11.6407 8.79409 11.7229 8.55692 11.7445 8.31059C11.7661 8.06427 11.7264 7.81642 11.6291 7.58912V7.57787L9.64438 3.1538C9.5157 2.85687 9.29444 2.60951 9.01362 2.44865C8.7328 2.2878 8.4075 2.22208 8.08626 2.2613C6.81592 2.42847 5.64986 3.05234 4.80588 4.01639C3.9619 4.98045 3.49771 6.21876 3.50001 7.50005C3.50001 14.9438 9.55626 21.0001 17 21.0001C18.2813 21.0023 19.5196 20.5382 20.4837 19.6942C21.4477 18.8502 22.0716 17.6841 22.2388 16.4138C22.2781 16.0927 22.2125 15.7674 22.0518 15.4866C21.8911 15.2058 21.644 14.9845 21.3472 14.8557ZM17 19.5001C13.8185 19.4966 10.7682 18.2312 8.51856 15.9815C6.26888 13.7318 5.00348 10.6816 5.00001 7.50005C4.99648 6.58458 5.32631 5.69911 5.92789 5.00903C6.52947 4.31895 7.36167 3.87143 8.26907 3.75005C8.2687 3.7538 8.2687 3.75756 8.26907 3.7613L10.2378 8.16755L8.30001 10.4869C8.28034 10.5096 8.26247 10.5337 8.24657 10.5591C8.10549 10.7756 8.02273 11.0249 8.0063 11.2827C7.98988 11.5406 8.04035 11.7984 8.15282 12.031C9.0022 13.7682 10.7525 15.5054 12.5084 16.3538C12.7428 16.4652 13.002 16.5139 13.2608 16.4952C13.5196 16.4765 13.7692 16.3909 13.985 16.2469C14.0091 16.2307 14.0322 16.2132 14.0544 16.1944L16.3334 14.2501L20.7397 16.2235C20.7397 16.2235 20.7472 16.2235 20.75 16.2235C20.6301 17.1322 20.1833 17.9661 19.4931 18.5691C18.8028 19.1722 17.9166 19.5031 17 19.5001Z" fill="#2B489E"/>
</g>
</svg>
